<svg width="26" height="30" viewBox="0 0 26 30" fill="none" xmlns="http://www.w3.org/2000/svg">
<path d="M18.9167 7.26159C18.9167 10.195 16.3246 12.6719 13 12.6719V14.1719C17.0392 14.1719 20.4167 11.1327 20.4167 7.26159H18.9167ZM13 12.6719C9.67544 12.6719 7.08334 10.195 7.08334 7.26159H5.58334C5.58334 11.1327 8.96078 14.1719 13 14.1719V12.6719ZM7.08334 7.26159C7.08334 4.32823 9.67544 1.85126 13 1.85126V0.351257C8.96078 0.351257 5.58334 3.39044 5.58334 7.26159H7.08334ZM13 1.85126C16.3246 1.85126 18.9167 4.32823 18.9167 7.26159H20.4167C20.4167 3.39044 17.0392 0.351257 13 0.351257V1.85126ZM23.9167 23.4325C23.9167 24.4525 22.9905 25.6135 20.935 26.5632C18.943 27.4835 16.1383 28.0728 13 28.0728V29.5728C16.305 29.5728 19.3337 28.9554 21.5642 27.9248C23.7312 26.9236 25.4167 25.3894 25.4167 23.4325H23.9167ZM13 28.0728C9.86173 28.0728 7.05704 27.4835 5.065 26.5632C3.00952 25.6135 2.08334 24.4525 2.08334 23.4325H0.583344C0.583344 25.3894 2.26884 26.9236 4.43586 27.9248C6.66633 28.9554 9.69497 29.5728 13 29.5728V28.0728ZM2.08334 23.4325C2.08334 22.4124 3.00952 21.2515 5.065 20.3018C7.05704 19.3814 9.86173 18.7922 13 18.7922V17.2922C9.69497 17.2922 6.66633 17.9096 4.43586 18.9401C2.26884 19.9413 0.583344 21.4755 0.583344 23.4325H2.08334ZM13 18.7922C16.1383 18.7922 18.943 19.3814 20.935 20.3018C22.9905 21.2515 23.9167 22.4124 23.9167 23.4325H25.4167C25.4167 21.4755 23.7312 19.9413 21.5642 18.9401C19.3337 17.9096 16.305 17.2922 13 17.2922V18.7922Z" fill="#A4A2A2"/>
</svg>
